<svg id="visual" viewBox="0 0 675 900" width="675" height="900" xmlns="http://www.w3.org/2000/svg" xmlns:xlink="http://www.w3.org/1999/xlink" version="1.1"><rect x="0" y="0" width="675" height="900" fill="#F3E99F"></rect><defs><linearGradient id="grad1_0" x1="0%" y1="100%" x2="100%" y2="0%"><stop offset="30%" stop-color="#f3e99f" stop-opacity="1"></stop><stop offset="70%" stop-color="#f3e99f" stop-opacity="1"></stop></linearGradient></defs><defs><linearGradient id="grad2_0" x1="0%" y1="100%" x2="100%" y2="0%"><stop offset="30%" stop-color="#f3e99f" stop-opacity="1"></stop><stop offset="70%" stop-color="#f3e99f" stop-opacity="1"></stop></linearGradient></defs><g transform="translate(675, 900)"><path d="M-506.2 0C-472 -58.6 -437.8 -117.3 -407.4 -168.8C-377.1 -220.2 -350.5 -264.6 -318.2 -318.2C-285.9 -371.8 -247.7 -434.8 -193.7 -467.7C-139.7 -500.6 -69.9 -503.4 0 -506.2L0 0Z" fill="#98D8AA"></path></g><g transform="translate(0, 0)"><path d="M506.3 0C465.8 55.6 425.3 111.2 397.3 164.6C369.2 217.9 353.6 269.2 323.9 323.9C294.1 378.6 250.1 436.7 193.7 467.7C137.4 498.7 68.7 502.5 0 506.3L0 0Z" fill="#98D8AA"></path></g></svg>