<svg id="visual" viewBox="0 0 3480 2160" width="3480" height="2160" xmlns="http://www.w3.org/2000/svg" xmlns:xlink="http://www.w3.org/1999/xlink" version="1.1"><rect x="0" y="0" width="3480" height="2160" fill="#f0f0f0"></rect><path d="M0 1491L82.8 1484.5C165.7 1478 331.3 1465 497 1478.7C662.7 1492.3 828.3 1532.7 994 1519.2C1159.7 1505.7 1325.3 1438.3 1491.2 1412.8C1657 1387.3 1823 1403.7 1988.8 1443.8C2154.7 1484 2320.3 1548 2486 1579.8C2651.7 1611.7 2817.3 1611.3 2983 1581.7C3148.7 1552 3314.3 1493 3397.2 1463.5L3480 1434L3480 2161L3397.2 2161C3314.3 2161 3148.7 2161 2983 2161C2817.3 2161 2651.7 2161 2486 2161C2320.3 2161 2154.7 2161 1988.8 2161C1823 2161 1657 2161 1491.2 2161C1325.3 2161 1159.7 2161 994 2161C828.3 2161 662.7 2161 497 2161C331.3 2161 165.7 2161 82.8 2161L0 2161Z" fill="#1a5d1a"></path><path d="M0 1562L82.8 1538.2C165.7 1514.3 331.3 1466.7 497 1473.3C662.7 1480 828.3 1541 994 1585C1159.7 1629 1325.3 1656 1491.2 1649.8C1657 1643.7 1823 1604.3 1988.8 1562.3C2154.7 1520.3 2320.3 1475.7 2486 1465.8C2651.7 1456 2817.3 1481 2983 1517.3C3148.7 1553.7 3314.3 1601.3 3397.2 1625.2L3480 1649L3480 2161L3397.2 2161C3314.3 2161 3148.7 2161 2983 2161C2817.3 2161 2651.7 2161 2486 2161C2320.3 2161 2154.7 2161 1988.8 2161C1823 2161 1657 2161 1491.2 2161C1325.3 2161 1159.7 2161 994 2161C828.3 2161 662.7 2161 497 2161C331.3 2161 165.7 2161 82.8 2161L0 2161Z" fill="#4c7a1d"></path><path d="M0 1587L82.8 1602.7C165.7 1618.3 331.3 1649.7 497 1648.2C662.7 1646.7 828.3 1612.3 994 1616.3C1159.7 1620.3 1325.3 1662.7 1491.2 1696C1657 1729.3 1823 1753.7 1988.8 1744.3C2154.7 1735 2320.3 1692 2486 1685.7C2651.7 1679.3 2817.3 1709.7 2983 1707.2C3148.7 1704.7 3314.3 1669.3 3397.2 1651.7L3480 1634L3480 2161L3397.2 2161C3314.3 2161 3148.7 2161 2983 2161C2817.3 2161 2651.7 2161 2486 2161C2320.3 2161 2154.7 2161 1988.8 2161C1823 2161 1657 2161 1491.2 2161C1325.3 2161 1159.7 2161 994 2161C828.3 2161 662.7 2161 497 2161C331.3 2161 165.7 2161 82.8 2161L0 2161Z" fill="#7e9621"></path><path d="M0 1782L82.8 1803.2C165.7 1824.3 331.3 1866.7 497 1889.3C662.7 1912 828.3 1915 994 1902.2C1159.7 1889.3 1325.3 1860.7 1491.2 1834.5C1657 1808.3 1823 1784.7 1988.8 1787.5C2154.7 1790.3 2320.3 1819.7 2486 1851.2C2651.7 1882.7 2817.3 1916.3 2983 1927.2C3148.7 1938 3314.3 1926 3397.2 1920L3480 1914L3480 2161L3397.2 2161C3314.3 2161 3148.7 2161 2983 2161C2817.3 2161 2651.7 2161 2486 2161C2320.3 2161 2154.7 2161 1988.8 2161C1823 2161 1657 2161 1491.2 2161C1325.3 2161 1159.7 2161 994 2161C828.3 2161 662.7 2161 497 2161C331.3 2161 165.7 2161 82.8 2161L0 2161Z" fill="#b5b02a"></path><path d="M0 2017L82.8 2012.8C165.7 2008.7 331.3 2000.3 497 1992.8C662.7 1985.3 828.3 1978.7 994 1967C1159.7 1955.3 1325.3 1938.7 1491.2 1929C1657 1919.3 1823 1916.7 1988.8 1926.2C2154.7 1935.7 2320.3 1957.3 2486 1973.2C2651.7 1989 2817.3 1999 2983 2010.7C3148.7 2022.3 3314.3 2035.7 3397.2 2042.3L3480 2049L3480 2161L3397.2 2161C3314.3 2161 3148.7 2161 2983 2161C2817.3 2161 2651.7 2161 2486 2161C2320.3 2161 2154.7 2161 1988.8 2161C1823 2161 1657 2161 1491.2 2161C1325.3 2161 1159.7 2161 994 2161C828.3 2161 662.7 2161 497 2161C331.3 2161 165.7 2161 82.8 2161L0 2161Z" fill="#f1c93b"></path></svg>