<svg id="visual" viewBox="0 0 3480 2160" width="3480" height="2160" xmlns="http://www.w3.org/2000/svg" xmlns:xlink="http://www.w3.org/1999/xlink" version="1.1"><rect x="0" y="0" width="3480" height="2160" fill="#f5f5f5"></rect><path d="M0 1380L497 1380L497 965L994 965L994 1331L1491 1331L1491 1379L1989 1379L1989 893L2486 893L2486 1040L2983 1040L2983 1120L3480 1120L3480 1379L3480 2161L3480 2161L2983 2161L2983 2161L2486 2161L2486 2161L1989 2161L1989 2161L1491 2161L1491 2161L994 2161L994 2161L497 2161L497 2161L0 2161Z" fill="#36ae7c"></path><path d="M0 1588L497 1588L497 1425L994 1425L994 1670L1491 1670L1491 1422L1989 1422L1989 1602L2486 1602L2486 1505L2983 1505L2983 1437L3480 1437L3480 1361L3480 2161L3480 2161L2983 2161L2983 2161L2486 2161L2486 2161L1989 2161L1989 2161L1491 2161L1491 2161L994 2161L994 2161L497 2161L497 2161L0 2161Z" fill="#aad38f"></path><path d="M0 1708L497 1708L497 1753L994 1753L994 1610L1491 1610L1491 1912L1989 1912L1989 1908L2486 1908L2486 1621L2983 1621L2983 1763L3480 1763L3480 1900L3480 2161L3480 2161L2983 2161L2983 2161L2486 2161L2486 2161L1989 2161L1989 2161L1491 2161L1491 2161L994 2161L994 2161L497 2161L497 2161L0 2161Z" fill="#fff7bc"></path></svg>