<svg xmlns="http://www.w3.org/2000/svg" xmlns:xlink="http://www.w3.org/1999/xlink" width="512" zoomAndPan="magnify" viewBox="0 0 384 383.999986" height="512" preserveAspectRatio="xMidYMid meet" version="1.0"><rect x="-38.4" width="460.8" fill="#ffffff" y="-38.399999" height="460.799983" fill-opacity="1"/><rect x="-38.4" width="460.8" fill="#ffffff" y="-38.399999" height="460.799983" fill-opacity="1"/><rect x="-38.4" width="460.8" fill="#ffffff" y="-38.399999" height="460.799983" fill-opacity="1"/><rect x="-38.4" width="460.8" fill="#ffffff" y="-38.399999" height="460.799983" fill-opacity="1"/><path fill="#d1d2d2" d="M -0.960938 -1.964844 L -1.746094 298.777344 L -1.96875 384.816406 L 384.820312 385.828125 L 384.980469 323.558594 L 385.828125 -0.957031 Z M -0.960938 -1.964844 " fill-opacity="1" fill-rule="nonzero"/><path fill="#d1d2d2" d="M 398.753906 -13.816406 L 397.679688 398.757812 L -14.890625 397.683594 L -13.816406 -14.886719 L 398.753906 -13.816406 M 411.683594 -26.675781 L 398.792969 -26.710938 L -13.78125 -27.785156 L -26.675781 -27.816406 L -26.710938 -14.921875 L -27.785156 397.652344 L -27.816406 410.542969 L -14.921875 410.574219 L 397.652344 411.644531 L 410.539062 411.683594 L 410.574219 398.789062 L 411.644531 -13.78125 Z M 411.683594 -26.675781 " fill-opacity="1" fill-rule="nonzero"/><path fill="#717273" d="M 323.710938 291.386719 C 278.269531 272.210938 238.882812 256.042969 238.882812 256.042969 C 238.882812 256.042969 238.882812 235.867188 238.882812 221.722656 C 238.882812 207.578125 262.117188 192.421875 262.117188 133.851562 C 262.117188 77.542969 235.9375 46.542969 194.433594 44.191406 C 194.433594 44.136719 194.433594 44.027344 194.433594 43.972656 C 193.578125 43.972656 192.765625 44.058594 191.925781 44.085938 C 191.066406 44.058594 190.261719 43.972656 189.394531 43.972656 C 189.394531 44.027344 189.394531 44.136719 189.394531 44.191406 C 147.898438 46.542969 121.71875 77.542969 121.71875 133.851562 C 121.71875 192.421875 144.949219 207.582031 144.949219 221.722656 C 144.949219 235.859375 144.949219 256.042969 144.949219 256.042969 C 144.949219 256.042969 105.566406 272.210938 60.117188 291.386719 C 14.660156 310.601562 -1.472656 337.84375 -1.472656 353.007812 C -1.472656 368.15625 -1.472656 384.308594 -1.472656 384.308594 L 385.316406 384.308594 C 385.316406 384.308594 385.316406 368.15625 385.316406 353.007812 C 385.324219 337.847656 369.136719 310.601562 323.710938 291.386719 Z M 323.710938 291.386719 " fill-opacity="1" fill-rule="nonzero"/></svg>